<?xml version="1.0" standalone="no"?><svg xmlns="http://www.w3.org/2000/svg" viewBox="0 0 1440 320"><path fill="#defafe" fill-opacity="1" d="M0,256L20,250.7C40,245,80,235,120,197.3C160,160,200,96,240,80C280,64,320,96,360,96C400,96,440,64,480,90.7C520,117,560,203,600,213.3C640,224,680,160,720,122.7C760,85,800,75,840,69.3C880,64,920,64,960,90.7C1000,117,1040,171,1080,170.7C1120,171,1160,117,1200,133.3C1240,149,1280,235,1320,261.3C1360,288,1400,256,1420,240L1440,224L1440,320L1420,320C1400,320,1360,320,1320,320C1280,320,1240,320,1200,320C1160,320,1120,320,1080,320C1040,320,1000,320,960,320C920,320,880,320,840,320C800,320,760,320,720,320C680,320,640,320,600,320C560,320,520,320,480,320C440,320,400,320,360,320C320,320,280,320,240,320C200,320,160,320,120,320C80,320,40,320,20,320L0,320Z"></path></svg>